<svg width="25" height="24" viewBox="0 0 25 24" fill="none" xmlns="http://www.w3.org/2000/svg">
<mask id="mask0_1_1096" style="mask-type:alpha" maskUnits="userSpaceOnUse" x="0" y="0" width="25" height="24">
<rect x="0.666626" width="24" height="24" fill="#D9D9D9"/>
</mask>
<g mask="url(#mask0_1_1096)">
<path d="M5.00415 8.77881C5.18365 8.77881 5.35718 8.84794 5.48267 8.97217L8.25806 11.7183C8.51294 11.9705 8.50079 12.3721 8.23267 12.6108C7.96834 12.8462 7.55318 12.8359 7.302 12.5874L5.66626 10.9683V16.603C5.66633 17.833 6.73425 18.8442 8.05981 18.8442H20.9182L21.05 18.8569C21.3489 18.9144 21.5803 19.1637 21.5803 19.4722C21.5802 19.8246 21.2777 20.1001 20.9182 20.1001H8.05981C6.01601 20.1001 4.34211 18.5371 4.34204 16.603V10.9692L2.70728 12.5874C2.57667 12.7167 2.40176 12.7808 2.22876 12.7808C2.06725 12.7807 1.90384 12.7252 1.77563 12.6108C1.5077 12.3721 1.49664 11.9715 1.75122 11.7192L4.52661 8.97217C4.65202 8.84802 4.82477 8.77889 5.00415 8.77881Z" fill="#1D1919" stroke="#1D1919" stroke-width="0.2"/>
<path d="M20.9674 15.2195C20.7879 15.2195 20.6144 15.1504 20.4889 15.0261L17.7135 12.28C17.4586 12.0278 17.4708 11.6262 17.7389 11.3875C18.0032 11.1521 18.4184 11.1624 18.6696 11.4109L20.3053 13.03V7.39526C20.3052 6.1653 19.2373 5.15405 17.9117 5.15405H5.05334L4.92151 5.14136C4.62266 5.0839 4.39124 4.83462 4.39124 4.52612C4.39134 4.17369 4.69382 3.89819 5.05334 3.89819H17.9117C19.9555 3.89819 21.6294 5.46122 21.6295 7.39526V13.0291L23.2643 11.4109C23.3949 11.2815 23.5698 11.2175 23.7428 11.2175C23.9043 11.2176 24.0677 11.2731 24.1959 11.3875C24.4639 11.6262 24.4749 12.0268 24.2203 12.2791L21.4449 15.0261C21.3195 15.1503 21.1468 15.2194 20.9674 15.2195Z" fill="#1D1919" stroke="#1D1919" stroke-width="0.2"/>
</g>
</svg>
