<svg width="13" height="13" viewBox="0 0 13 13" fill="none" xmlns="http://www.w3.org/2000/svg">
<path d="M6.43761 0.925446C6.62102 0.553823 7.15094 0.553823 7.33435 0.925445L8.82194 3.93964C8.89478 4.08721 9.03556 4.1895 9.19841 4.21316L12.5248 4.69651C12.9349 4.7561 13.0986 5.26009 12.8019 5.54936L10.3949 7.89558C10.2771 8.01045 10.2233 8.17595 10.2511 8.33815L10.8193 11.6511C10.8894 12.0595 10.4607 12.371 10.0938 12.1782L7.11865 10.614C6.97299 10.5374 6.79897 10.5374 6.65331 10.614L3.67812 12.1782C3.31131 12.371 2.88259 12.0595 2.95265 11.6511L3.52086 8.33815C3.54868 8.17595 3.4949 8.01045 3.37706 7.89558L0.970083 5.54936C0.673325 5.26009 0.837079 4.7561 1.24719 4.69651L4.57355 4.21316C4.73641 4.1895 4.87719 4.08721 4.95002 3.93964L6.43761 0.925446Z" fill="white"/>
</svg>
