<svg width="24" height="24" viewBox="0 0 24 24" fill="none" xmlns="http://www.w3.org/2000/svg">
<path fill-rule="evenodd" clip-rule="evenodd" d="M4.31016 11.3324L3.31013 11.3324C3.03399 11.3324 2.81012 11.5563 2.81012 11.8324V12.8324V19.6673V20.6673C2.81012 20.9435 3.03398 21.1673 3.31012 21.1673H4.31012H17.0998C17.6267 21.1673 18.1767 21.0366 18.6504 20.7005C19.1351 20.3565 19.4457 19.8622 19.5708 19.32C19.6742 18.8716 19.6489 18.4286 19.5353 18.0117C19.8006 17.7191 20.016 17.3656 20.1431 16.9466C20.3188 16.3675 20.2869 15.801 20.1067 15.2754C20.4181 14.9122 20.6527 14.4751 20.7542 13.9548C20.8625 13.3995 20.7948 12.8721 20.6213 12.3891C20.8988 12.0034 21.0806 11.5616 21.1536 11.1139C21.3302 10.0308 20.8708 8.7876 19.5761 8.22497L19.2901 8.10069L18.9782 8.10069L12.4852 8.10076L12.6129 5.40919C12.6794 4.00632 11.56 2.83252 10.1555 2.83252C9.03442 2.83252 8.0551 3.59052 7.77401 4.67583L6.04996 11.3325L4.31016 11.3324ZM17.7298 17.4824C17.6647 17.5101 17.6432 17.5941 17.6874 17.6495C18.0507 18.1052 18.1859 18.5717 18.1178 18.9412C18.0388 19.3694 17.6867 19.6673 17.0998 19.6673H7.26905V12.6082L9.22609 5.05192C9.3358 4.62835 9.718 4.33252 10.1555 4.33252C10.7037 4.33252 11.1406 4.79062 11.1146 5.33813L10.9836 8.10077L10.9373 9.07708C10.9237 9.3622 11.1513 9.60077 11.4367 9.60077L12.4141 9.60076L18.9783 9.60069C19.7638 9.94205 19.8461 10.771 19.4863 11.3866C19.3375 11.6412 19.1132 11.8593 18.8317 11.9913C18.7684 12.021 18.7459 12.1033 18.7887 12.1585C19.1332 12.6021 19.3053 13.0278 19.3055 13.42C19.3056 13.5818 19.2764 13.738 19.2179 13.8873C19.0737 14.2559 18.7511 14.5832 18.2506 14.8525C18.1902 14.885 18.1767 14.967 18.2231 15.0175C18.6069 15.4352 18.7654 15.8393 18.7572 16.2015C18.7543 16.3277 18.7313 16.4488 18.6904 16.5636C18.549 16.9616 18.1945 17.2844 17.7298 17.4824ZM5.76905 12.8325V19.6673H4.31012V18.1673V14.3324V12.8324L5.76905 12.8325Z" fill="#1D1919"/>
</svg>
