<svg width="10" height="7" viewBox="0 0 10 7" fill="none" xmlns="http://www.w3.org/2000/svg">
<path d="M3.7536 0.490075C3.35905 0.172227 2.87408 -0.000173649 2.375 0C1.77826 0 1.20597 0.246535 0.784012 0.68537C0.362055 1.12421 0.125002 1.71939 0.125002 2.34V3.9C0.124286 4.47014 0.323746 5.02095 0.68592 5.44895C1.04809 5.87696 1.54806 6.15273 2.09192 6.22446C2.63578 6.29619 3.18611 6.15895 3.63955 5.83852C4.09299 5.51808 4.41835 5.0365 4.5545 4.48422C4.57932 4.38492 4.58505 4.2815 4.57137 4.17989C4.55769 4.07828 4.52487 3.98047 4.47479 3.89207C4.4247 3.80368 4.35834 3.72642 4.27951 3.66474C4.20067 3.60305 4.11091 3.55815 4.01536 3.5326C3.91981 3.50706 3.82036 3.50136 3.72269 3.51586C3.62503 3.53035 3.53107 3.56473 3.4462 3.61705C3.36133 3.66936 3.28722 3.73858 3.22812 3.82073C3.16901 3.90287 3.12607 3.99634 3.10175 4.09578L3.07625 4.17768C3.014 4.34838 2.89614 4.49096 2.7432 4.58059C2.59026 4.67022 2.41194 4.70122 2.23929 4.66818C2.06665 4.63515 1.91061 4.54018 1.79836 4.39981C1.68611 4.25944 1.62476 4.08257 1.625 3.9V2.34C1.62428 2.14968 1.69048 1.96565 1.81115 1.82257C1.93182 1.67949 2.09863 1.58723 2.28016 1.56316C2.46169 1.5391 2.64542 1.58489 2.79674 1.69191C2.94807 1.79893 3.05655 1.9598 3.10175 2.14422L3.128 2.23158C3.19595 2.4187 3.33042 2.57152 3.50363 2.65846C3.67684 2.7454 3.87554 2.75982 4.05868 2.69873C4.24181 2.63765 4.39539 2.50573 4.48767 2.33024C4.57994 2.15475 4.60387 1.9491 4.5545 1.75578C4.4299 1.25318 4.14816 0.807923 3.7536 0.490075Z" fill="white"/>
<path d="M9.0036 0.490075C8.60905 0.172227 8.12408 -0.000173649 7.625 0C7.02826 0 6.45597 0.246535 6.03401 0.68537C5.61205 1.12421 5.375 1.71939 5.375 2.34V3.9L5.3795 4.03728C5.41087 4.59419 5.63252 5.12112 6.00449 5.52307C6.37646 5.92502 6.87426 6.17554 7.40816 6.22947C7.94205 6.28339 8.47691 6.13717 8.91629 5.81717C9.35567 5.49717 9.67068 5.02444 9.8045 4.48422C9.82932 4.38492 9.83505 4.2815 9.82137 4.17989C9.80769 4.07828 9.77487 3.98047 9.72479 3.89207C9.6747 3.80368 9.60835 3.72642 9.52951 3.66474C9.45067 3.60305 9.36091 3.55815 9.26536 3.5326C9.16981 3.50706 9.07036 3.50136 8.97269 3.51586C8.87503 3.53035 8.78107 3.56473 8.6962 3.61705C8.61133 3.66936 8.53722 3.73858 8.47812 3.82073C8.41901 3.90287 8.37607 3.99634 8.35175 4.09578L8.32625 4.17768C8.264 4.34838 8.14614 4.49096 7.9932 4.58059C7.84026 4.67022 7.66194 4.70122 7.48929 4.66818C7.31665 4.63515 7.16061 4.54018 7.04836 4.39981C6.93611 4.25944 6.87476 4.08257 6.875 3.9V2.34L6.88025 2.24952C6.90109 2.06909 6.98179 1.90187 7.10845 1.77668C7.23511 1.65149 7.39979 1.57616 7.57411 1.56369C7.74844 1.55121 7.92148 1.60237 8.06344 1.70834C8.20539 1.81431 8.30735 1.96846 8.35175 2.14422L8.378 2.23158C8.44595 2.4187 8.58043 2.57152 8.75363 2.65846C8.92684 2.7454 9.12554 2.75982 9.30868 2.69873C9.49181 2.63765 9.64539 2.50573 9.73767 2.33024C9.82994 2.15475 9.85387 1.9491 9.8045 1.75578C9.6799 1.25318 9.39816 0.807923 9.0036 0.490075Z" fill="white"/>
</svg>
