<svg width="25" height="24" viewBox="0 0 25 24" fill="none" xmlns="http://www.w3.org/2000/svg">
<path fill-rule="evenodd" clip-rule="evenodd" d="M15.3333 17H5.33331C4.22874 17 3.33331 16.1046 3.33331 15V5C3.33331 3.89543 4.22874 3 5.33331 3H19.3333C20.4379 3 21.3333 3.89543 21.3333 5V21L15.3333 17ZM19.8333 18.1972L15.7875 15.5H5.33331C5.05717 15.5 4.83331 15.2761 4.83331 15V5C4.83331 4.72386 5.05717 4.5 5.33331 4.5H19.3333C19.6095 4.5 19.8333 4.72386 19.8333 5V18.1972Z" fill="#1D1919"/>
<path fill-rule="evenodd" clip-rule="evenodd" d="M16.3333 9H7.33331V7.5H16.3333V9Z" fill="#1D1919"/>
<path fill-rule="evenodd" clip-rule="evenodd" d="M16.3333 13H10.3333V11.5H16.3333V13Z" fill="#1D1919"/>
</svg>
