<svg width="47" height="46" viewBox="0 0 47 46" fill="none" xmlns="http://www.w3.org/2000/svg">
<path d="M31.3363 8.83253C32.1201 8.97611 32.9129 9.08533 33.6867 9.27294C39.552 10.6673 43.9371 15.5161 44.6127 21.3338C45.048 24.9928 43.9894 28.6716 41.6628 31.5846C39.3363 34.4976 35.9262 36.4138 32.161 36.9241C31.5462 37.0057 30.9258 37.0417 30.3053 37.0316C29.9225 37.0316 29.7143 37.1435 29.5243 37.4658C27.9313 40.1735 26.3193 42.8714 24.7127 45.5693C24.6454 45.682 24.5754 45.7921 24.4472 46V32.6558H24.9118C26.6981 32.6558 28.4863 32.6558 30.2762 32.6558C35.1723 32.6487 39.5347 28.8788 40.0839 24.1815C40.7067 18.8473 37.0835 14.2063 31.6082 13.3405C31.1296 13.2686 30.646 13.2326 30.1616 13.2331C28.2705 13.2216 26.3793 13.2286 24.4336 13.2286V8.83253H31.3363Z" fill="#E2504B"/>
<path d="M21.1577 8.83253V13.2286H15.457C10.3008 13.2286 5.87113 17.0972 5.43652 21.9777C4.98192 27.0723 8.46602 31.5618 13.604 32.4831C14.199 32.5881 14.8022 32.6432 15.4069 32.6478C17.2981 32.669 19.1893 32.6557 21.1204 32.6557V36.9832C21.0986 37.0025 21.0877 37.0219 21.0768 37.021C18.2228 36.9691 15.3488 37.3002 12.5166 36.7682C6.47666 35.6338 1.74876 30.7224 0.973197 24.8051C-0.021481 17.2522 5.18467 10.3792 12.9166 9.03864C13.3603 8.96201 13.8067 8.90124 14.2513 8.83253H21.1577Z" fill="#E2504B"/>
</svg>
